STARTFONT 2.1
FONT -misc-call3327-medium-r-normal--16-160-96-96-c-140-iso10646-1
SIZE 16 96 96
FONTBOUNDINGBOX 14 16 0 0
STARTPROPERTIES 2
FONT_ASCENT 16
FONT_DESCENT 0
ENDPROPERTIES
CHARS 128
STARTCHAR U+0000
ENCODING 0
SWIDTH 1000 0
DWIDTH 14 0
BBX 14 16 0 0
BITMAP
0000
0000
0000
0000
0000
0000
0000
0000
0000
0000
0000
0000
0000
0000
0000
0000
ENDCHAR

STARTCHAR U+0001
ENCODING 1
SWIDTH 1000 0
DWIDTH 14 0
BBX 14 16 0 0
BITMAP
3000
0000
3000
0000
3000
0000
3000
0000
0000
0000
0000
0000
0000
0000
0000
0000
ENDCHAR

STARTCHAR U+0002
ENCODING 2
SWIDTH 1000 0
DWIDTH 14 0
BBX 14 16 0 0
BITMAP
3300
0000
3300
0000
3300
0000
3300
0000
0000
0000
0000
0000
0000
0000
0000
0000
ENDCHAR

STARTCHAR U+0003
ENCODING 3
SWIDTH 1000 0
DWIDTH 14 0
BBX 14 16 0 0
BITMAP
3000
0000
3000
0000
3000
0000
3000
0000
0000
0000
0000
0000
0000
0000
0000
0000
ENDCHAR

STARTCHAR U+0004
ENCODING 4
SWIDTH 1000 0
DWIDTH 14 0
BBX 14 16 0 0
BITMAP
3300
0000
3300
0000
3300
0000
3300
0000
0000
0000
0000
0000
0000
0000
0000
0000
ENDCHAR

STARTCHAR U+0005
ENCODING 5
SWIDTH 1000 0
DWIDTH 14 0
BBX 14 16 0 0
BITMAP
0C00
0000
0C00
0000
0C00
0000
0C00
0000
0000
0000
0000
0000
0000
0000
0000
0000
ENDCHAR

STARTCHAR U+0006
ENCODING 6
SWIDTH 1000 0
DWIDTH 14 0
BBX 14 16 0 0
BITMAP
3300
0000
3300
0000
3300
0000
3300
0000
0000
0000
0000
0000
0000
0000
0000
0000
ENDCHAR

STARTCHAR U+0007
ENCODING 7
SWIDTH 1000 0
DWIDTH 14 0
BBX 14 16 0 0
BITMAP
0C00
0000
0C00
0000
0C00
0000
0C00
0000
0000
0000
0000
0000
0000
0000
0000
0000
ENDCHAR

STARTCHAR U+0008
ENCODING 8
SWIDTH 1000 0
DWIDTH 14 0
BBX 14 16 0 0
BITMAP
3300
0000
3300
0000
3300
0000
3300
0000
0000
0000
0000
0000
0000
0000
0000
0000
ENDCHAR

STARTCHAR U+0009
ENCODING 9
SWIDTH 1000 0
DWIDTH 14 0
BBX 14 16 0 0
BITMAP
0000
0000
0000
0000
0000
0000
0000
0000
0300
0000
0300
0000
3FF3
0000
0000
0000
ENDCHAR

STARTCHAR U+000a
ENCODING 10
SWIDTH 1000 0
DWIDTH 14 0
BBX 14 16 0 0
BITMAP
0000
0000
0000
0000
0000
0000
0000
0000
0CC0
0000
0CC0
0000
3FF3
0000
0000
0000
ENDCHAR

STARTCHAR U+000b
ENCODING 11
SWIDTH 1000 0
DWIDTH 14 0
BBX 14 16 0 0
BITMAP
0000
0000
0000
0000
0000
0000
0000
0000
0000
0000
0000
0000
3FF3
0000
0300
0000
ENDCHAR

STARTCHAR U+000c
ENCODING 12
SWIDTH 1000 0
DWIDTH 14 0
BBX 14 16 0 0
BITMAP
0000
0000
0000
0000
0000
0000
0000
0000
0000
0000
0000
0000
3FF3
0000
0CC0
0000
ENDCHAR

STARTCHAR U+000d
ENCODING 13
SWIDTH 1000 0
DWIDTH 14 0
BBX 14 16 0 0
BITMAP
0000
0000
0000
0000
0000
0000
0000
0000
0000
0000
0000
0000
3FF3
0000
0000
0000
ENDCHAR

STARTCHAR U+000e
ENCODING 14
SWIDTH 1000 0
DWIDTH 14 0
BBX 14 16 0 0
BITMAP
0C00
0000
0C00
0000
0C00
0000
0C00
0000
0000
0000
0000
0000
0000
0000
0000
0000
ENDCHAR

STARTCHAR U+000f
ENCODING 15
SWIDTH 1000 0
DWIDTH 14 0
BBX 14 16 0 0
BITMAP
0000
0000
3C30
0000
0C30
0000
0C30
0000
0CCC
0000
3300
0000
0000
0000
0000
0000
ENDCHAR

STARTCHAR U+0010
ENCODING 16
SWIDTH 1000 0
DWIDTH 14 0
BBX 14 16 0 0
BITMAP
0000
0000
03F3
0000
00C3
0000
00C3
0000
0333
0000
3F33
0000
0000
0000
0000
0000
ENDCHAR

STARTCHAR U+0011
ENCODING 17
SWIDTH 1000 0
DWIDTH 14 0
BBX 14 16 0 0
BITMAP
0000
0000
00C3
0000
03F3
0000
00C3
0000
0333
0000
3CC3
0000
0000
0000
0000
0000
ENDCHAR

STARTCHAR U+0012
ENCODING 18
SWIDTH 1000 0
DWIDTH 14 0
BBX 14 16 0 0
BITMAP
0000
0000
3FF3
0000
0C33
0000
3C33
0000
0033
0000
3C33
0000
0000
0000
0000
0000
ENDCHAR

STARTCHAR U+0013
ENCODING 19
SWIDTH 1000 0
DWIDTH 14 0
BBX 14 16 0 0
BITMAP
0000
0000
3CFC
0000
0CCC
0000
3CCC
0000
00CC
0000
3CFC
0000
0000
0000
0000
0000
ENDCHAR

STARTCHAR U+0014
ENCODING 20
SWIDTH 1000 0
DWIDTH 14 0
BBX 14 16 0 0
BITMAP
0000
0000
3CCC
0000
0CCC
0000
3CFC
0000
00CC
0000
3CFC
0000
0000
0000
0000
0000
ENDCHAR

STARTCHAR U+0015
ENCODING 21
SWIDTH 1000 0
DWIDTH 14 0
BBX 14 16 0 0
BITMAP
0000
0000
3C30
0000
0C30
0000
3C30
0000
00CC
0000
3F0C
0000
0000
0000
0000
0000
ENDCHAR

STARTCHAR U+0016
ENCODING 22
SWIDTH 1000 0
DWIDTH 14 0
BBX 14 16 0 0
BITMAP
0000
0000
3CFC
0000
0C00
0000
3CFC
0000
00C0
0000
3CFC
0000
0000
0000
0000
0000
ENDCHAR

STARTCHAR U+0017
ENCODING 23
SWIDTH 1000 0
DWIDTH 14 0
BBX 14 16 0 0
BITMAP
0000
0000
3FFC
0000
0F30
0000
3F30
0000
0330
0000
3FFC
0000
0000
0000
0000
0000
ENDCHAR

STARTCHAR U+0018
ENCODING 24
SWIDTH 1000 0
DWIDTH 14 0
BBX 14 16 0 0
BITMAP
0000
0000
3C30
0000
0CFC
0000
3C30
0000
00CC
0000
3C30
0000
0000
0000
0000
0000
ENDCHAR

STARTCHAR U+0019
ENCODING 25
SWIDTH 1000 0
DWIDTH 14 0
BBX 14 16 0 0
BITMAP
0000
0000
0C30
0000
0C30
0000
3C30
0000
0CCC
0000
3CCC
0000
0000
0000
0000
0000
ENDCHAR

STARTCHAR U+001a
ENCODING 26
SWIDTH 1000 0
DWIDTH 14 0
BBX 14 16 0 0
BITMAP
0000
0000
0000
0000
0000
0000
0000
0000
0000
0000
0000
0000
0000
0000
0000
0000
ENDCHAR

STARTCHAR U+001b
ENCODING 27
SWIDTH 1000 0
DWIDTH 14 0
BBX 14 16 0 0
BITMAP
0000
0000
0000
0000
0000
0000
0000
0000
0000
0000
0000
0000
0000
0000
0000
0000
ENDCHAR

STARTCHAR U+001c
ENCODING 28
SWIDTH 1000 0
DWIDTH 14 0
BBX 14 16 0 0
BITMAP
0000
0000
0000
0000
0000
0000
0000
0000
0000
0000
0000
0000
0000
0000
0000
0000
ENDCHAR

STARTCHAR U+001d
ENCODING 29
SWIDTH 1000 0
DWIDTH 14 0
BBX 14 16 0 0
BITMAP
0000
0000
0000
0000
0000
0000
0000
0000
0000
0000
0000
0000
0000
0000
0000
0000
ENDCHAR

STARTCHAR U+001e
ENCODING 30
SWIDTH 1000 0
DWIDTH 14 0
BBX 14 16 0 0
BITMAP
0000
0000
0000
0000
0000
0000
0000
0000
0300
0000
0FC0
0000
3FF0
0000
3FFC
0000
ENDCHAR

STARTCHAR U+001f
ENCODING 31
SWIDTH 1000 0
DWIDTH 14 0
BBX 14 16 0 0
BITMAP
0000
0000
0000
0000
0000
0000
0000
0000
0000
0000
0000
0000
0000
0000
0000
0000
ENDCHAR

STARTCHAR U+0020
ENCODING 32
SWIDTH 1000 0
DWIDTH 14 0
BBX 14 16 0 0
BITMAP
0000
0000
0000
0000
0000
0000
0000
0000
0000
0000
0000
0000
0000
0000
0000
0000
ENDCHAR

STARTCHAR U+0021
ENCODING 33
SWIDTH 1000 0
DWIDTH 14 0
BBX 14 16 0 0
BITMAP
0300
0000
0300
0000
0300
0000
0300
0000
0300
0000
0000
0000
0300
0000
0000
0000
ENDCHAR

STARTCHAR U+0022
ENCODING 34
SWIDTH 1000 0
DWIDTH 14 0
BBX 14 16 0 0
BITMAP
0CC0
0000
0CC0
0000
0CC0
0000
0000
0000
0000
0000
0000
0000
0000
0000
0000
0000
ENDCHAR

STARTCHAR U+0023
ENCODING 35
SWIDTH 1000 0
DWIDTH 14 0
BBX 14 16 0 0
BITMAP
0CC0
0000
0CC0
0000
3FF0
0000
0CC0
0000
3FF0
0000
0CC0
0000
0CC0
0000
0000
0000
ENDCHAR

STARTCHAR U+0024
ENCODING 36
SWIDTH 1000 0
DWIDTH 14 0
BBX 14 16 0 0
BITMAP
0300
0000
0FF0
0000
3300
0000
0FC0
0000
0330
0000
3FC0
0000
0300
0000
0000
0000
ENDCHAR

STARTCHAR U+0025
ENCODING 37
SWIDTH 1000 0
DWIDTH 14 0
BBX 14 16 0 0
BITMAP
3C00
0000
3C30
0000
00C0
0000
0300
0000
0C00
0000
30F0
0000
00F0
0000
0000
0000
ENDCHAR

STARTCHAR U+0026
ENCODING 38
SWIDTH 1000 0
DWIDTH 14 0
BBX 14 16 0 0
BITMAP
0C00
0000
3300
0000
3300
0000
0C00
0000
3330
0000
30C0
0000
0F30
0000
0000
0000
ENDCHAR

STARTCHAR U+0027
ENCODING 39
SWIDTH 1000 0
DWIDTH 14 0
BBX 14 16 0 0
BITMAP
0300
0000
0300
0000
0300
0000
0000
0000
0000
0000
0000
0000
0000
0000
0000
0000
ENDCHAR

STARTCHAR U+0028
ENCODING 40
SWIDTH 1000 0
DWIDTH 14 0
BBX 14 16 0 0
BITMAP
0300
0000
0C00
0000
3000
0000
3000
0000
3000
0000
0C00
0000
0300
0000
0000
0000
ENDCHAR

STARTCHAR U+0029
ENCODING 41
SWIDTH 1000 0
DWIDTH 14 0
BBX 14 16 0 0
BITMAP
0300
0000
00C0
0000
0030
0000
0030
0000
0030
0000
00C0
0000
0300
0000
0000
0000
ENDCHAR

STARTCHAR U+002a
ENCODING 42
SWIDTH 1000 0
DWIDTH 14 0
BBX 14 16 0 0
BITMAP
0300
0000
3330
0000
0FC0
0000
0300
0000
0FC0
0000
3330
0000
0300
0000
0000
0000
ENDCHAR

STARTCHAR U+002b
ENCODING 43
SWIDTH 1000 0
DWIDTH 14 0
BBX 14 16 0 0
BITMAP
0000
0000
0300
0000
0300
0000
3FF0
0000
0300
0000
0300
0000
0000
0000
0000
0000
ENDCHAR

STARTCHAR U+002c
ENCODING 44
SWIDTH 1000 0
DWIDTH 14 0
BBX 14 16 0 0
BITMAP
0000
0000
0000
0000
0000
0000
0000
0000
0300
0000
0300
0000
0C00
0000
0000
0000
ENDCHAR

STARTCHAR U+002d
ENCODING 45
SWIDTH 1000 0
DWIDTH 14 0
BBX 14 16 0 0
BITMAP
0000
0000
0000
0000
0000
0000
3FF0
0000
0000
0000
0000
0000
0000
0000
0000
0000
ENDCHAR

STARTCHAR U+002e
ENCODING 46
SWIDTH 1000 0
DWIDTH 14 0
BBX 14 16 0 0
BITMAP
0000
0000
0000
0000
0000
0000
0000
0000
0000
0000
0000
0000
0300
0000
0000
0000
ENDCHAR

STARTCHAR U+002f
ENCODING 47
SWIDTH 1000 0
DWIDTH 14 0
BBX 14 16 0 0
BITMAP
0000
0000
0030
0000
00C0
0000
0300
0000
0C00
0000
3000
0000
0000
0000
0000
0000
ENDCHAR

STARTCHAR U+0030
ENCODING 48
SWIDTH 1000 0
DWIDTH 14 0
BBX 14 16 0 0
BITMAP
0FC0
0000
3030
0000
30F0
0000
3330
0000
3C30
0000
3030
0000
0FC0
0000
0000
0000
ENDCHAR

STARTCHAR U+0031
ENCODING 49
SWIDTH 1000 0
DWIDTH 14 0
BBX 14 16 0 0
BITMAP
0300
0000
0F00
0000
0300
0000
0300
0000
0300
0000
0300
0000
0FC0
0000
0000
0000
ENDCHAR

STARTCHAR U+0032
ENCODING 50
SWIDTH 1000 0
DWIDTH 14 0
BBX 14 16 0 0
BITMAP
0FC0
0000
3030
0000
0030
0000
03C0
0000
0C00
0000
3000
0000
3FF0
0000
0000
0000
ENDCHAR

STARTCHAR U+0033
ENCODING 51
SWIDTH 1000 0
DWIDTH 14 0
BBX 14 16 0 0
BITMAP
3FF0
0000
0030
0000
00C0
0000
03C0
0000
0030
0000
3030
0000
0FC0
0000
0000
0000
ENDCHAR

STARTCHAR U+0034
ENCODING 52
SWIDTH 1000 0
DWIDTH 14 0
BBX 14 16 0 0
BITMAP
00C0
0000
03C0
0000
0CC0
0000
30C0
0000
3FF0
0000
00C0
0000
00C0
0000
0000
0000
ENDCHAR

STARTCHAR U+0035
ENCODING 53
SWIDTH 1000 0
DWIDTH 14 0
BBX 14 16 0 0
BITMAP
3FF0
0000
3000
0000
3FC0
0000
0030
0000
0030
0000
3030
0000
0FC0
0000
0000
0000
ENDCHAR

STARTCHAR U+0036
ENCODING 54
SWIDTH 1000 0
DWIDTH 14 0
BBX 14 16 0 0
BITMAP
03F0
0000
0C00
0000
3000
0000
3FC0
0000
3030
0000
3030
0000
0FC0
0000
0000
0000
ENDCHAR

STARTCHAR U+0037
ENCODING 55
SWIDTH 1000 0
DWIDTH 14 0
BBX 14 16 0 0
BITMAP
3FF0
0000
0030
0000
00C0
0000
0300
0000
0C00
0000
0C00
0000
0C00
0000
0000
0000
ENDCHAR

STARTCHAR U+0038
ENCODING 56
SWIDTH 1000 0
DWIDTH 14 0
BBX 14 16 0 0
BITMAP
0FC0
0000
3030
0000
3030
0000
0FC0
0000
3030
0000
3030
0000
0FC0
0000
0000
0000
ENDCHAR

STARTCHAR U+0039
ENCODING 57
SWIDTH 1000 0
DWIDTH 14 0
BBX 14 16 0 0
BITMAP
0FC0
0000
3030
0000
3030
0000
0FF0
0000
0030
0000
00C0
0000
3F00
0000
0000
0000
ENDCHAR

STARTCHAR U+003a
ENCODING 58
SWIDTH 1000 0
DWIDTH 14 0
BBX 14 16 0 0
BITMAP
0000
0000
0000
0000
0300
0000
0000
0000
0300
0000
0000
0000
0000
0000
0000
0000
ENDCHAR

STARTCHAR U+003b
ENCODING 59
SWIDTH 1000 0
DWIDTH 14 0
BBX 14 16 0 0
BITMAP
0000
0000
0000
0000
0300
0000
0000
0000
0300
0000
0300
0000
0C00
0000
0000
0000
ENDCHAR

STARTCHAR U+003c
ENCODING 60
SWIDTH 1000 0
DWIDTH 14 0
BBX 14 16 0 0
BITMAP
00C0
0000
0300
0000
0C00
0000
3000
0000
0C00
0000
0300
0000
00C0
0000
0000
0000
ENDCHAR

STARTCHAR U+003d
ENCODING 61
SWIDTH 1000 0
DWIDTH 14 0
BBX 14 16 0 0
BITMAP
0000
0000
0000
0000
3FF0
0000
0000
0000
3FF0
0000
0000
0000
0000
0000
0000
0000
ENDCHAR

STARTCHAR U+003e
ENCODING 62
SWIDTH 1000 0
DWIDTH 14 0
BBX 14 16 0 0
BITMAP
0C00
0000
0300
0000
00C0
0000
0030
0000
00C0
0000
0300
0000
0C00
0000
0000
0000
ENDCHAR

STARTCHAR U+003f
ENCODING 63
SWIDTH 1000 0
DWIDTH 14 0
BBX 14 16 0 0
BITMAP
0FC0
0000
3030
0000
00C0
0000
0300
0000
0300
0000
0000
0000
0300
0000
0000
0000
ENDCHAR

STARTCHAR U+0040
ENCODING 64
SWIDTH 1000 0
DWIDTH 14 0
BBX 14 16 0 0
BITMAP
0FC0
0000
3030
0000
3330
0000
33F0
0000
33C0
0000
3000
0000
0FF0
0000
0000
0000
ENDCHAR

STARTCHAR U+0041
ENCODING 65
SWIDTH 1000 0
DWIDTH 14 0
BBX 14 16 0 0
BITMAP
0300
0000
0CC0
0000
3030
0000
3030
0000
3FF0
0000
3030
0000
3030
0000
0000
0000
ENDCHAR

STARTCHAR U+0042
ENCODING 66
SWIDTH 1000 0
DWIDTH 14 0
BBX 14 16 0 0
BITMAP
3FC0
0000
3030
0000
3030
0000
3FC0
0000
3030
0000
3030
0000
3FC0
0000
0000
0000
ENDCHAR

STARTCHAR U+0043
ENCODING 67
SWIDTH 1000 0
DWIDTH 14 0
BBX 14 16 0 0
BITMAP
0FC0
0000
3030
0000
3000
0000
3000
0000
3000
0000
3030
0000
0FC0
0000
0000
0000
ENDCHAR

STARTCHAR U+0044
ENCODING 68
SWIDTH 1000 0
DWIDTH 14 0
BBX 14 16 0 0
BITMAP
3FC0
0000
3030
0000
3030
0000
3030
0000
3030
0000
3030
0000
3FC0
0000
0000
0000
ENDCHAR

STARTCHAR U+0045
ENCODING 69
SWIDTH 1000 0
DWIDTH 14 0
BBX 14 16 0 0
BITMAP
3FF0
0000
3000
0000
3000
0000
3FC0
0000
3000
0000
3000
0000
3FF0
0000
0000
0000
ENDCHAR

STARTCHAR U+0046
ENCODING 70
SWIDTH 1000 0
DWIDTH 14 0
BBX 14 16 0 0
BITMAP
3FF0
0000
3000
0000
3000
0000
3FC0
0000
3000
0000
3000
0000
3000
0000
0000
0000
ENDCHAR

STARTCHAR U+0047
ENCODING 71
SWIDTH 1000 0
DWIDTH 14 0
BBX 14 16 0 0
BITMAP
0FF0
0000
3000
0000
3000
0000
3000
0000
30F0
0000
3030
0000
0FF0
0000
0000
0000
ENDCHAR

STARTCHAR U+0048
ENCODING 72
SWIDTH 1000 0
DWIDTH 14 0
BBX 14 16 0 0
BITMAP
3030
0000
3030
0000
3030
0000
3FF0
0000
3030
0000
3030
0000
3030
0000
0000
0000
ENDCHAR

STARTCHAR U+0049
ENCODING 73
SWIDTH 1000 0
DWIDTH 14 0
BBX 14 16 0 0
BITMAP
0FC0
0000
0300
0000
0300
0000
0300
0000
0300
0000
0300
0000
0FC0
0000
0000
0000
ENDCHAR

STARTCHAR U+004a
ENCODING 74
SWIDTH 1000 0
DWIDTH 14 0
BBX 14 16 0 0
BITMAP
0030
0000
0030
0000
0030
0000
0030
0000
0030
0000
3030
0000
0FC0
0000
0000
0000
ENDCHAR

STARTCHAR U+004b
ENCODING 75
SWIDTH 1000 0
DWIDTH 14 0
BBX 14 16 0 0
BITMAP
3030
0000
30C0
0000
3300
0000
3C00
0000
3300
0000
30C0
0000
3030
0000
0000
0000
ENDCHAR

STARTCHAR U+004c
ENCODING 76
SWIDTH 1000 0
DWIDTH 14 0
BBX 14 16 0 0
BITMAP
3000
0000
3000
0000
3000
0000
3000
0000
3000
0000
3000
0000
3FF0
0000
0000
0000
ENDCHAR

STARTCHAR U+004d
ENCODING 77
SWIDTH 1000 0
DWIDTH 14 0
BBX 14 16 0 0
BITMAP
3030
0000
3CF0
0000
3330
0000
3330
0000
3030
0000
3030
0000
3030
0000
0000
0000
ENDCHAR

STARTCHAR U+004e
ENCODING 78
SWIDTH 1000 0
DWIDTH 14 0
BBX 14 16 0 0
BITMAP
3030
0000
3030
0000
3C30
0000
3330
0000
30F0
0000
3030
0000
3030
0000
0000
0000
ENDCHAR

STARTCHAR U+004f
ENCODING 79
SWIDTH 1000 0
DWIDTH 14 0
BBX 14 16 0 0
BITMAP
0FC0
0000
3030
0000
3030
0000
3030
0000
3030
0000
3030
0000
0FC0
0000
0000
0000
ENDCHAR

STARTCHAR U+0050
ENCODING 80
SWIDTH 1000 0
DWIDTH 14 0
BBX 14 16 0 0
BITMAP
3FC0
0000
3030
0000
3030
0000
3FC0
0000
3000
0000
3000
0000
3000
0000
0000
0000
ENDCHAR

STARTCHAR U+0051
ENCODING 81
SWIDTH 1000 0
DWIDTH 14 0
BBX 14 16 0 0
BITMAP
0FC0
0000
3030
0000
3030
0000
3030
0000
3330
0000
30C0
0000
0F30
0000
0000
0000
ENDCHAR

STARTCHAR U+0052
ENCODING 82
SWIDTH 1000 0
DWIDTH 14 0
BBX 14 16 0 0
BITMAP
3FC0
0000
3030
0000
3030
0000
3FC0
0000
3300
0000
30C0
0000
3030
0000
0000
0000
ENDCHAR

STARTCHAR U+0053
ENCODING 83
SWIDTH 1000 0
DWIDTH 14 0
BBX 14 16 0 0
BITMAP
0FC0
0000
3030
0000
3000
0000
0FC0
0000
0030
0000
3030
0000
0FC0
0000
0000
0000
ENDCHAR

STARTCHAR U+0054
ENCODING 84
SWIDTH 1000 0
DWIDTH 14 0
BBX 14 16 0 0
BITMAP
3FF0
0000
0300
0000
0300
0000
0300
0000
0300
0000
0300
0000
0300
0000
0000
0000
ENDCHAR

STARTCHAR U+0055
ENCODING 85
SWIDTH 1000 0
DWIDTH 14 0
BBX 14 16 0 0
BITMAP
3030
0000
3030
0000
3030
0000
3030
0000
3030
0000
3030
0000
0FC0
0000
0000
0000
ENDCHAR

STARTCHAR U+0056
ENCODING 86
SWIDTH 1000 0
DWIDTH 14 0
BBX 14 16 0 0
BITMAP
3030
0000
3030
0000
3030
0000
3030
0000
3030
0000
0CC0
0000
0300
0000
0000
0000
ENDCHAR

STARTCHAR U+0057
ENCODING 87
SWIDTH 1000 0
DWIDTH 14 0
BBX 14 16 0 0
BITMAP
3030
0000
3030
0000
3030
0000
3030
0000
3330
0000
3CF0
0000
3030
0000
0000
0000
ENDCHAR

STARTCHAR U+0058
ENCODING 88
SWIDTH 1000 0
DWIDTH 14 0
BBX 14 16 0 0
BITMAP
3030
0000
3030
0000
0CC0
0000
0300
0000
0CC0
0000
3030
0000
3030
0000
0000
0000
ENDCHAR

STARTCHAR U+0059
ENCODING 89
SWIDTH 1000 0
DWIDTH 14 0
BBX 14 16 0 0
BITMAP
3030
0000
3030
0000
0CC0
0000
0300
0000
0300
0000
0300
0000
0300
0000
0000
0000
ENDCHAR

STARTCHAR U+005a
ENCODING 90
SWIDTH 1000 0
DWIDTH 14 0
BBX 14 16 0 0
BITMAP
3FF0
0000
0030
0000
00C0
0000
0300
0000
0C00
0000
3000
0000
3FF0
0000
0000
0000
ENDCHAR

STARTCHAR U+005b
ENCODING 91
SWIDTH 1000 0
DWIDTH 14 0
BBX 14 16 0 0
BITMAP
3FF0
0000
3C00
0000
3C00
0000
3C00
0000
3C00
0000
3C00
0000
3FF0
0000
0000
0000
ENDCHAR

STARTCHAR U+005c
ENCODING 92
SWIDTH 1000 0
DWIDTH 14 0
BBX 14 16 0 0
BITMAP
0000
0000
0033
0000
3330
0000
3FFC
0000
3330
0000
3330
0000
0CC0
0000
0000
0000
ENDCHAR

STARTCHAR U+005d
ENCODING 93
SWIDTH 1000 0
DWIDTH 14 0
BBX 14 16 0 0
BITMAP
3FF0
0000
00F0
0000
00F0
0000
00F0
0000
00F0
0000
00F0
0000
3FF0
0000
0000
0000
ENDCHAR

STARTCHAR U+005e
ENCODING 94
SWIDTH 1000 0
DWIDTH 14 0
BBX 14 16 0 0
BITMAP
3FF0
0000
0030
0000
0030
0000
0030
0000
0030
0000
0000
0000
0000
0000
0000
0000
ENDCHAR

STARTCHAR U+005f
ENCODING 95
SWIDTH 1000 0
DWIDTH 14 0
BBX 14 16 0 0
BITMAP
3FF3
0000
0333
0000
0333
0000
0CC3
0000
0000
0000
0000
0000
0000
0000
0000
0000
ENDCHAR

STARTCHAR U+0060
ENCODING 96
SWIDTH 1000 0
DWIDTH 14 0
BBX 14 16 0 0
BITMAP
3000
0000
3000
0000
3000
0000
3000
0000
3FF0
0000
0000
0000
0000
0000
0000
0000
ENDCHAR

STARTCHAR U+0061
ENCODING 97
SWIDTH 1000 0
DWIDTH 14 0
BBX 14 16 0 0
BITMAP
3FF0
0000
3000
0000
3000
0000
3000
0000
3FF0
0000
0000
0000
0000
0000
0000
0000
ENDCHAR

STARTCHAR U+0062
ENCODING 98
SWIDTH 1000 0
DWIDTH 14 0
BBX 14 16 0 0
BITMAP
3FF0
0000
3300
0000
3300
0000
3300
0000
3FF0
0000
0000
0000
0000
0000
0000
0000
ENDCHAR

STARTCHAR U+0063
ENCODING 99
SWIDTH 1000 0
DWIDTH 14 0
BBX 14 16 0 0
BITMAP
3FF0
0000
0030
0000
3FF0
0000
3000
0000
3FF0
0000
0000
0000
0000
0000
0000
0000
ENDCHAR

STARTCHAR U+0064
ENCODING 100
SWIDTH 1000 0
DWIDTH 14 0
BBX 14 16 0 0
BITMAP
3FF0
0000
3030
0000
3030
0000
3030
0000
3FF0
0000
0000
0000
0000
0000
0000
0000
ENDCHAR

STARTCHAR U+0065
ENCODING 101
SWIDTH 1000 0
DWIDTH 14 0
BBX 14 16 0 0
BITMAP
3030
0000
3030
0000
3FF0
0000
3030
0000
3FF0
0000
0000
0000
0000
0000
0000
0000
ENDCHAR

STARTCHAR U+0066
ENCODING 102
SWIDTH 1000 0
DWIDTH 14 0
BBX 14 16 0 0
BITMAP
3330
0000
3330
0000
3FF0
0000
3330
0000
3FF0
0000
0000
0000
0000
0000
0000
0000
ENDCHAR

STARTCHAR U+0067
ENCODING 103
SWIDTH 1000 0
DWIDTH 14 0
BBX 14 16 0 0
BITMAP
0300
0000
0300
0000
0300
0000
0CC0
0000
3030
0000
0000
0000
0000
0000
0000
0000
ENDCHAR

STARTCHAR U+0068
ENCODING 104
SWIDTH 1000 0
DWIDTH 14 0
BBX 14 16 0 0
BITMAP
0CC0
0000
0CC0
0000
3330
0000
030C
0000
0000
0000
0000
0000
0000
0000
0000
0000
ENDCHAR

STARTCHAR U+0069
ENCODING 105
SWIDTH 1000 0
DWIDTH 14 0
BBX 14 16 0 0
BITMAP
0FC0
0000
3030
0000
3030
0000
3030
0000
0FC0
0000
0000
0000
0000
0000
0000
0000
ENDCHAR

STARTCHAR U+006a
ENCODING 106
SWIDTH 1000 0
DWIDTH 14 0
BBX 14 16 0 0
BITMAP
3FF0
0000
0300
0000
0300
0000
0CC0
0000
3030
0000
0000
0000
0000
0000
0000
0000
ENDCHAR

STARTCHAR U+006b
ENCODING 107
SWIDTH 1000 0
DWIDTH 14 0
BBX 14 16 0 0
BITMAP
3FF3
0000
0CC3
0000
3303
0000
0CC3
0000
3033
0000
0000
0000
0000
0000
0000
0000
ENDCHAR

STARTCHAR U+006c
ENCODING 108
SWIDTH 1000 0
DWIDTH 14 0
BBX 14 16 0 0
BITMAP
0300
0000
3FF0
0000
0300
0000
0CC0
0000
3030
0000
0000
0000
0000
0000
0000
0000
ENDCHAR

STARTCHAR U+006d
ENCODING 109
SWIDTH 1000 0
DWIDTH 14 0
BBX 14 16 0 0
BITMAP
3FF3
0000
0033
0000
3FF3
0000
0033
0000
00C3
0000
0000
0000
0000
0000
0000
0000
ENDCHAR

STARTCHAR U+006e
ENCODING 110
SWIDTH 1000 0
DWIDTH 14 0
BBX 14 16 0 0
BITMAP
3FF0
0000
0000
0000
3FF0
0000
3000
0000
3FF0
0000
0000
0000
0000
0000
0000
0000
ENDCHAR

STARTCHAR U+006f
ENCODING 111
SWIDTH 1000 0
DWIDTH 14 0
BBX 14 16 0 0
BITMAP
3FF0
0000
0CC0
0000
0CC0
0000
0CC0
0000
3FF0
0000
0000
0000
0000
0000
0000
0000
ENDCHAR

STARTCHAR U+0070
ENCODING 112
SWIDTH 1000 0
DWIDTH 14 0
BBX 14 16 0 0
BITMAP
0300
0000
3FF0
0000
0FC0
0000
3030
0000
0FC0
0000
0000
0000
0000
0000
0000
0000
ENDCHAR

STARTCHAR U+0071
ENCODING 113
SWIDTH 1000 0
DWIDTH 14 0
BBX 14 16 0 0
BITMAP
3000
0000
3000
0000
3000
0000
3FC0
0000
3000
0000
3000
0000
3000
0000
3000
0000
ENDCHAR

STARTCHAR U+0072
ENCODING 114
SWIDTH 1000 0
DWIDTH 14 0
BBX 14 16 0 0
BITMAP
3300
0000
3300
0000
3300
0000
3F00
0000
3300
0000
3300
0000
3300
0000
3300
0000
ENDCHAR

STARTCHAR U+0073
ENCODING 115
SWIDTH 1000 0
DWIDTH 14 0
BBX 14 16 0 0
BITMAP
3000
0000
3000
0000
3FC0
0000
3000
0000
3000
0000
3FC0
0000
3000
0000
3000
0000
ENDCHAR

STARTCHAR U+0074
ENCODING 116
SWIDTH 1000 0
DWIDTH 14 0
BBX 14 16 0 0
BITMAP
3300
0000
3300
0000
3F00
0000
3300
0000
3300
0000
3F00
0000
3300
0000
3300
0000
ENDCHAR

STARTCHAR U+0075
ENCODING 117
SWIDTH 1000 0
DWIDTH 14 0
BBX 14 16 0 0
BITMAP
0C00
0000
0C00
0000
0C00
0000
3C00
0000
0C00
0000
0C00
0000
0C00
0000
0C00
0000
ENDCHAR

STARTCHAR U+0076
ENCODING 118
SWIDTH 1000 0
DWIDTH 14 0
BBX 14 16 0 0
BITMAP
3300
0000
3300
0000
3300
0000
3300
0000
3300
0000
3300
0000
3300
0000
3300
0000
ENDCHAR

STARTCHAR U+0077
ENCODING 119
SWIDTH 1000 0
DWIDTH 14 0
BBX 14 16 0 0
BITMAP
0C00
0000
0C00
0000
3C00
0000
0C00
0000
0C00
0000
3C00
0000
0C00
0000
0C00
0000
ENDCHAR

STARTCHAR U+0078
ENCODING 120
SWIDTH 1000 0
DWIDTH 14 0
BBX 14 16 0 0
BITMAP
3300
0000
3300
0000
3300
0000
3300
0000
3300
0000
3300
0000
3300
0000
3300
0000
ENDCHAR

STARTCHAR U+0079
ENCODING 121
SWIDTH 1000 0
DWIDTH 14 0
BBX 14 16 0 0
BITMAP
0300
0000
0300
0000
0300
0000
3FF3
0000
0000
0000
0000
0000
0000
0000
0000
0000
ENDCHAR

STARTCHAR U+007a
ENCODING 122
SWIDTH 1000 0
DWIDTH 14 0
BBX 14 16 0 0
BITMAP
0CC0
0000
0CC0
0000
0CC0
0000
3FF3
0000
0000
0000
0000
0000
0000
0000
0000
0000
ENDCHAR

STARTCHAR U+007b
ENCODING 123
SWIDTH 1000 0
DWIDTH 14 0
BBX 14 16 0 0
BITMAP
3FF3
0000
0300
0000
0300
0000
0300
0000
0300
0000
0000
0000
0000
0000
0000
0000
ENDCHAR

STARTCHAR U+007c
ENCODING 124
SWIDTH 1000 0
DWIDTH 14 0
BBX 14 16 0 0
BITMAP
3FF3
0000
0CC0
0000
0CC0
0000
0CC0
0000
0CC0
0000
0000
0000
0000
0000
0000
0000
ENDCHAR

STARTCHAR U+007d
ENCODING 125
SWIDTH 1000 0
DWIDTH 14 0
BBX 14 16 0 0
BITMAP
0000
0000
0000
0000
3FF3
0000
0000
0000
0000
0000
0000
0000
0000
0000
0000
0000
ENDCHAR

STARTCHAR U+007e
ENCODING 126
SWIDTH 1000 0
DWIDTH 14 0
BBX 14 16 0 0
BITMAP
0C00
0000
0C00
0000
0C00
0000
0C00
0000
0C00
0000
0C00
0000
0C00
0000
0C00
0000
ENDCHAR

STARTCHAR U+007f
ENCODING 127
SWIDTH 1000 0
DWIDTH 14 0
BBX 14 16 0 0
BITMAP
3FFF
0000
3FFF
0000
3FFF
0000
3FFF
0000
3FFF
0000
3FFF
0000
3FFF
0000
3FFF
0000
ENDCHAR

ENDFONT
